HIERARCHY
ROOT Hips
{
	OFFSET	0.00	0.00	0.00
	CHANNELS 6 Xposition Yposition Zposition Zrotation Xrotation Yrotation
	JOINT LeftUpLeg
	{
		OFFSET	 0.126116	-0.014019	-0.065224
		CHANNELS 3 Zrotation Xrotation Yrotation
		JOINT LeftLeg
		{
			OFFSET	 0.000000	 0.000000	 0.569914
			CHANNELS 3 Zrotation Xrotation Yrotation
			JOINT LeftFoot
			{
				OFFSET	 0.000000	 0.000000	 0.544423
				CHANNELS 3 Zrotation Xrotation Yrotation
				JOINT LeftToeBase
				{
					OFFSET	 0.000000	 0.000000	 0.207117
					CHANNELS 3 Zrotation Xrotation Yrotation
					End Site
					{
						OFFSET	 0.000000	 0.000000	 0.207117
					}
				}
			}
		}
	}
	JOINT RightUpLeg
	{
		OFFSET	-0.124023	-0.008373	-0.065224
		CHANNELS 3 Zrotation Xrotation Yrotation
		JOINT RightLeg
		{
			OFFSET	 0.000000	 0.000000	 0.570047
			CHANNELS 3 Zrotation Xrotation Yrotation
			JOINT RightFoot
			{
				OFFSET	 0.000000	 0.000000	 0.544354
				CHANNELS 3 Zrotation Xrotation Yrotation
				JOINT RightToeBase
				{
					OFFSET	 0.000000	 0.000000	 0.207540
					CHANNELS 3 Zrotation Xrotation Yrotation
					End Site
					{
						OFFSET	 0.000000	 0.000000	 0.207540
					}
				}
			}
		}
	}
	JOINT Spine
	{
		OFFSET	 0.000184	-0.007763	 0.117403
		CHANNELS 3 Zrotation Xrotation Yrotation
		JOINT Spine1
		{
			OFFSET	 0.000000	 0.000000	 0.137269
			CHANNELS 3 Zrotation Xrotation Yrotation
			JOINT Spine2
			{
				OFFSET	 0.000000	 0.000000	 0.156879
				CHANNELS 3 Zrotation Xrotation Yrotation
				JOINT LeftShoulder
				{
					OFFSET	 0.080501	-0.002496	 0.160144
					CHANNELS 3 Zrotation Xrotation Yrotation
					JOINT LeftArm
					{
						OFFSET	 0.000000	 0.000000	 0.164363
						CHANNELS 3 Zrotation Xrotation Yrotation
						JOINT LeftForeArm
						{
							OFFSET	 0.000000	 0.000000	 0.364576
							CHANNELS 3 Zrotation Xrotation Yrotation
							JOINT LeftHand
							{
								OFFSET	 0.000000	 0.000000	 0.360812
								CHANNELS 3 Zrotation Xrotation Yrotation
								JOINT LeftHandIndex1
								{
									OFFSET	 0.000000	 0.000000	 0.086006
									CHANNELS 3 Zrotation Xrotation Yrotation
									JOINT LeftHandIndex2
									{
										OFFSET	 0.000000	 0.000000	 0.047236
										CHANNELS 3 Zrotation Xrotation Yrotation
										JOINT LeftHandIndex3
										{
											OFFSET	-0.004284	-0.000551	 0.038166
											CHANNELS 3 Zrotation Xrotation Yrotation
											End Site
											{
												OFFSET	-0.004284	-0.000551	 0.038166
											}
										}
									}
								}
							}
						}
					}
				}
				JOINT Neck
				{
					OFFSET	 0.000000	 0.000000	 0.176489
					CHANNELS 3 Zrotation Xrotation Yrotation
					JOINT Head
					{
						OFFSET	 0.000000	-0.001747	 0.077940
						CHANNELS 3 Zrotation Xrotation Yrotation
						End Site
						{
							OFFSET	 0.000000	-0.001747	 0.077940
						}
					}
				}
				JOINT RightShoulder
				{
					OFFSET	-0.080363	 0.000306	 0.159706
					CHANNELS 3 Zrotation Xrotation Yrotation
					JOINT RightArm
					{
						OFFSET	 0.000000	 0.000000	 0.164196
						CHANNELS 3 Zrotation Xrotation Yrotation
						JOINT RightForeArm
						{
							OFFSET	 0.000000	 0.000000	 0.365611
							CHANNELS 3 Zrotation Xrotation Yrotation
							JOINT RightHand
							{
								OFFSET	 0.000000	 0.000000	 0.360648
								CHANNELS 3 Zrotation Xrotation Yrotation
								JOINT RightHandIndex1
								{
									OFFSET	 0.000000	 0.000000	 0.069977
									CHANNELS 3 Zrotation Xrotation Yrotation
									JOINT RightHandIndex2
									{
										OFFSET	 0.000000	 0.000000	 0.052305
										CHANNELS 3 Zrotation Xrotation Yrotation
										JOINT RightHandIndex3
										{
											OFFSET	 0.009002	-0.000782	 0.042196
											CHANNELS 3 Zrotation Xrotation Yrotation
											End Site
											{
												OFFSET	 0.009002	-0.000782	 0.042196
											}
										}
									}
								}
							}
						}
					}
				}
			}
		}
	}
}
MOTION
Frames:    10
Frame Time: 0.03333334
-0.000629	 0.020081	 1.265901	 0.003134	-0.002225	-0.180042	-4.559855	-3.551102	 178.817000	 1.414621	-15.936320	-0.941229	-7.476989	 73.325690	 1.360426	-2.385833	 28.452760	 0.000004	 4.489706	-4.171152	-178.481600	-1.387613	-16.787220	 0.976127	 7.434141	 73.599230	-1.440072	 2.384658	 28.388730	 0.000004	 4.213286	 2.923312	-0.131021	 2.146471	 3.052855	 0.881614	-6.468452	-3.698241	-1.353619	-91.776250	 78.527450	-180.000000	 71.889990	 45.316310	-60.620020	-8.161906	 0.190644	-0.475654	-29.158480	 2.830717	-4.355094	-2.635965	 4.993658	 6.788941	-5.165319	 0.784187	 3.516649	-5.225038	 0.466231	 0.424329	-0.000002	-3.783157	-0.089647	-6.323109	 5.001334	 0.276412	 89.782120	 78.203900	 180.000000	-62.806100	 41.260150	 53.377290	 7.193720	 5.578982	 12.982500	 28.249730	 1.831954	 8.833975	 6.112037	 4.509576	-0.364401	 4.968462	 1.518543	-9.347576	 5.168945	 0.703820	 2.021906
-0.000624	 0.020182	 1.264385	 0.003343	-0.002369	-0.176208	-4.626529	-4.083893	 178.858700	 1.395100	-17.035500	-1.010014	-7.850818	 73.881540	 1.750440	-2.385833	 28.452760	 0.000004	 4.557760	-4.674141	-178.527100	-1.368493	-17.824400	 1.040396	 7.791068	 74.123660	-1.812102	 2.384658	 28.388730	 0.000004	 4.174109	 2.968506	-0.136354	 2.125791	 2.894352	 0.882753	-6.407904	-3.498963	-1.327123	-91.776170	 78.527450	 180.000000	 71.797190	 45.292400	-60.608890	-8.159440	 0.190457	-0.475188	-29.158440	 2.830726	-4.355088	-2.635965	 4.993658	 6.788941	-5.165319	 0.784187	 3.516649	-5.225038	 0.466231	 0.424329	-0.000002	-3.783157	-0.089647	-6.272681	 5.103645	 0.279820	 89.782060	 78.203900	-180.000000	-62.674230	 41.152570	 53.527340	 7.058983	 5.517800	 12.927340	 28.220900	 1.755040	 8.784929	 6.112037	 4.509576	-0.364401	 4.968462	 1.518543	-9.347576	 5.168945	 0.703820	 2.021906
-0.000610	 0.020510	 1.259532	 0.004382	-0.000763	-0.159381	-4.836476	-5.604847	 178.971000	 1.330957	-20.171860	-1.210993	-9.082627	 75.464130	 3.029176	-2.385833	 28.452760	 0.000004	 4.755012	-6.125729	-178.661900	-1.305752	-20.812800	 1.229987	 8.948244	 75.631950	-3.027665	 2.384658	 28.388730	 0.000004	 3.979174	 3.108984	-0.150367	 2.027082	 2.392841	 0.871536	-6.115049	-2.874953	-1.225324	-91.776210	 78.527470	-180.000000	 71.482450	 45.228890	-60.545930	-8.148048	 0.190501	-0.475290	-29.158460	 2.830758	-4.355070	-2.635965	 4.993658	 6.788941	-5.165319	 0.784187	 3.516649	-5.225038	 0.466231	 0.424329	-0.000002	-3.783157	-0.089647	-6.011578	 5.438527	 0.285771	 89.782200	 78.203870	 179.999900	-62.369250	 40.544200	 54.406280	 6.438085	 5.136428	 12.428350	 28.382190	 1.263384	 8.494098	 6.112037	 4.509576	-0.364401	 4.968462	 1.518543	-9.347576	 5.168945	 0.703820	 2.021906
-0.000588	 0.020875	 1.254150	 0.005514	 0.001266	-0.137527	-5.080128	-7.061530	 179.074200	 1.256876	-23.179940	-1.411499	-10.584690	 76.974930	 4.561312	-2.385833	 28.452760	 0.000004	 4.982174	-7.529485	-178.798300	-1.233474	-23.704360	 1.420742	 10.363690	 77.085010	-4.486384	 2.384658	 28.388730	 0.000004	 3.639840	 3.256870	-0.154505	 1.860643	 1.862861	 0.829369	-5.616019	-2.225714	-1.086103	-91.776160	 78.527470	 180.000000	 71.043510	 45.136670	-60.128970	-8.128700	 0.383639	-0.957216	-29.158460	 2.830724	-4.355099	-2.635965	 4.993658	 6.788941	-5.165319	 0.784187	 3.516649	-5.225038	 0.466231	 0.424329	-0.000002	-3.783157	-0.089647	-5.544886	 5.811820	 0.281669	 89.782040	 78.203900	-180.000000	-61.827070	 39.763990	 55.798010	 5.585659	 4.505801	 11.417290	 28.590890	 0.654264	 8.137542	 6.112037	 4.509576	-0.364401	 4.968462	 1.518543	-9.347576	 5.168945	 0.703820	 2.021906
-0.000558	 0.021217	 1.249169	 0.006358	 0.003052	-0.115402	-5.287823	-8.264734	 179.154700	 1.185464	-25.666930	-1.584178	-12.097560	 78.217760	 6.112083	-2.385833	 28.452760	 0.000004	 5.187168	-8.695418	-178.915300	-1.163967	-26.106950	 1.585761	 11.815980	 78.285900	-5.975218	 2.384658	 28.388730	 0.000004	 3.212328	 3.382644	-0.145549	 1.654410	 1.411373	 0.760318	-4.995014	-1.680710	-0.936915	-91.776190	 78.527430	-180.000000	 70.468840	 44.994750	-59.065860	-8.092363	 0.960776	-2.397985	-29.158460	 2.830714	-4.355077	-2.635965	 4.993658	 6.788941	-5.165319	 0.784187	 3.516649	-5.225038	 0.466231	 0.424329	-0.000002	-3.783157	-0.089647	-4.949454	 6.145952	 0.265862	 89.782220	 78.203890	 179.999900	-60.904910	 38.813440	 57.113830	 4.488817	 3.983506	 10.715120	 28.581680	 0.007573	 7.670009	 6.112037	 4.509576	-0.364401	 4.968462	 1.518543	-9.347576	 5.168945	 0.703820	 2.021906
-0.000522	 0.021530	 1.244654	 0.006765	 0.004314	-0.094483	-5.473571	-9.264304	 179.219500	 1.118392	-27.735990	-1.733412	-13.626930	 79.245140	 7.673186	-2.385833	 28.452760	 0.000004	 5.369419	-9.667147	-179.015300	-1.098845	-28.110570	 1.728645	 13.282580	 79.281110	-7.472735	 2.384658	 28.388730	 0.000004	 2.736058	 3.484051	-0.125939	 1.426840	 1.047561	 0.671990	-4.308612	-1.246847	-0.788306	-91.776090	 78.527470	 179.999900	 70.005460	 44.895500	-58.330230	-8.054864	 1.305836	-3.260351	-29.158520	 2.830720	-4.355088	-2.635965	 4.993658	 6.788941	-5.165319	 0.784187	 3.516649	-5.225038	 0.466231	 0.424329	-0.000002	-3.783157	-0.089647	-4.281740	 6.426533	 0.240478	 89.782100	 78.203900	 180.000000	-59.344020	 37.600780	 57.555310	 3.095828	 4.009566	 11.628570	 28.312630	-0.660443	 7.062456	 6.112037	 4.509576	-0.364401	 4.968462	 1.518543	-9.347576	 5.168945	 0.703820	 2.021906
-0.000473	 0.021863	 1.239952	 0.006638	 0.005016	-0.072548	-5.664754	-10.233660	 179.281500	 1.046012	-29.745910	-1.883919	-15.423470	 80.235290	 9.500670	-2.385833	 28.452760	 0.000004	 5.556669	-10.611530	-179.114300	-1.028727	-30.059650	 1.872864	 15.002060	 80.241640	-9.222648	 2.384658	 28.388730	 0.000004	 2.157979	 3.581878	-0.130292	 1.151891	 0.712477	 0.623848	-3.480725	-0.859000	-0.654686	-91.776180	 78.527450	 180.000000	 69.533620	 44.802340	-57.587920	-8.112845	 1.610898	-4.023481	-29.060420	 2.843662	-4.339150	-2.635965	 4.993658	 6.788941	-5.165319	 0.784187	 3.516649	-5.225038	 0.466231	 0.424329	-0.000002	-3.783157	-0.089647	-3.468055	 6.683352	 0.202545	 89.782100	 78.203870	 180.000000	-56.934610	 36.009720	 57.992900	 1.170740	 4.034232	 13.083920	 27.642950	-1.476560	 6.113332	 6.112037	 4.509576	-0.364401	 4.968462	 1.518543	-9.347576	 5.168945	 0.703820	 2.021906
-0.000412	 0.022198	 1.235307	 0.005824	 0.004889	-0.051083	-5.851562	-11.133270	 179.338900	 0.971766	-31.614970	-2.029402	-17.455920	 81.146540	 11.561900	-2.385833	 28.452760	 0.000004	 5.739828	-11.489240	-179.207700	-0.956987	-31.873430	 2.012277	 16.941470	 81.126550	-11.190710	 2.384658	 28.388730	 0.000004	 1.515515	 3.650755	-0.076526	 0.848780	 0.464713	 0.464687	-2.564690	-0.568773	-0.473725	-91.776220	 78.527430	-180.000000	 69.066470	 44.714250	-56.843900	-8.092712	 1.874921	-4.684698	-29.035470	 2.846897	-4.335079	-2.635965	 4.993658	 6.788941	-5.165319	 0.784187	 3.516649	-5.225038	 0.466231	 0.424329	-0.000002	-3.783157	-0.089647	-2.561940	 6.888687	 0.154208	 89.782010	 78.203900	-179.999900	-54.042880	 34.463140	 60.074480	-0.810368	 3.266209	 12.118890	 26.774180	-2.181919	 5.078063	 6.112037	 4.509576	-0.364401	 4.968462	 1.518543	-9.347576	 5.168945	 0.703820	 2.021906
-0.000332	 0.022554	 1.230306	 0.004096	 0.003694	-0.029075	-6.047020	-12.033390	 179.397000	 0.890016	-33.489460	-2.181314	-19.961390	 82.047770	 14.096180	-2.385833	 28.452760	 0.000004	 5.932354	-12.368310	-179.302300	-0.878197	-33.693020	 2.157773	 19.322290	 82.002330	-13.600590	 2.384658	 28.388730	 0.000004	 0.775056	 3.699859	-0.010149	 0.500996	 0.288622	 0.277150	-1.513986	-0.362489	-0.276335	-91.776280	 78.527450	-179.999900	 68.560720	 44.619570	-55.998330	-8.069827	 2.134500	-5.335696	-29.007200	 2.850635	-4.330487	-2.635965	 4.993658	 6.788941	-5.165319	 0.784187	 3.516649	-5.225038	 0.466231	 0.424329	-0.000002	-3.783157	-0.089647	-1.517417	 7.040271	 0.093335	 89.782070	 78.203890	-180.000000	-50.261310	 32.565000	 62.722010	-3.007496	 2.444020	 10.746170	 25.567060	-2.793324	 3.876141	 6.112037	 4.509576	-0.364401	 4.968462	 1.518543	-9.347576	 5.168945	 0.703820	 2.021906
-0.000233	 0.022920	 1.224939	 0.001365	 0.001520	-0.007128	-6.246947	-12.916700	 179.455200	 0.801859	-35.333050	-2.337292	-23.043940	 82.916650	 17.206960	-2.385833	 28.452760	 0.000004	 6.130453	-13.231510	-179.396200	-0.793463	-35.482510	 2.307018	 22.234780	 82.847340	-16.541960	 2.384658	 28.388730	 0.000004	-0.033199	 3.722367	 0.065102	 0.123391	 0.208120	 0.070099	-0.372760	-0.266711	-0.068352	-91.776250	 78.527430	-179.999900	 68.026410	 44.519530	-55.061080	-8.045853	 2.377310	-5.945445	-28.976040	 2.854795	-4.325453	-2.635965	 4.993658	 6.788941	-5.165319	 0.784187	 3.516649	-5.225038	 0.466231	 0.424329	-0.000002	-3.783157	-0.089647	-0.379444	 7.114388	 0.023574	 89.782140	 78.203900	 179.999900	-45.180500	 30.209750	 64.217510	-5.508233	 2.159784	 11.873090	 23.989100	-3.241671	 2.532314	 6.112037	 4.509576	-0.364401	 4.968462	 1.518543	-9.347576	 5.168945	 0.703820	 2.021906
